<?xml version="1.0" encoding="UTF-8" standalone="no"?>
<svg
   xmlns:dc="http://purl.org/dc/elements/1.1/"
   xmlns:cc="http://creativecommons.org/ns#"
   xmlns:rdf="http://www.w3.org/1999/02/22-rdf-syntax-ns#"
   xmlns:svg="http://www.w3.org/2000/svg"
   xmlns="http://www.w3.org/2000/svg"
   xmlns:sodipodi="http://sodipodi.sourceforge.net/DTD/sodipodi-0.dtd"
   xmlns:inkscape="http://www.inkscape.org/namespaces/inkscape"
   viewBox="0 0 90 90"
   id="svg2"
   version="1.1"
   inkscape:version="0.91 r13725"
   sodipodi:docname="LocationBookmarks.svg">
  <sodipodi:namedview
     pagecolor="#ffffff"
     bordercolor="#666666"
     borderopacity="1"
     objecttolerance="10"
     gridtolerance="10"
     guidetolerance="10"
     inkscape:pageopacity="0"
     inkscape:pageshadow="2"
     inkscape:window-width="1920"
     inkscape:window-height="1136"
     id="namedview221"
     showgrid="false"
     inkscape:zoom="2.6222222"
     inkscape:cx="45"
     inkscape:cy="45"
     inkscape:window-x="1600"
     inkscape:window-y="0"
     inkscape:window-maximized="1"
     inkscape:current-layer="svg2" />
  <title
     id="title4">LocationBookmarks</title>
  <defs
     id="defs6">
    <filter
       id="imagebot_16"
       color-interpolation-filters="sRGB"
       width="1.6355"
       y="-.34873"
       x="-.31777"
       height="1.6975">
      <feGaussianBlur
         id="imagebot_31"
         stdDeviation="4.91661" />
    </filter>
    <linearGradient
       id="imagebot_15"
       x2="4.6849"
       y1="11.073"
       x1="1.1099"
       y2="10.954">
      <stop
         id="imagebot_30"
         stop-color="#fff"
         offset="0" />
      <stop
         id="imagebot_29"
         stop-color="#a40000"
         offset="1" />
    </linearGradient>
    <filter
       id="imagebot_11"
       color-interpolation-filters="sRGB"
       width="1.2279"
       y="-.21682"
       x="-.11396"
       height="1.4336">
      <feGaussianBlur
         id="imagebot_28"
         stdDeviation="3.31109" />
    </filter>
    <linearGradient
       id="imagebot_19"
       x2=".5"
       y1=".25745"
       x1=".5327"
       y2="1.0652">
      <stop
         id="imagebot_27"
         stop-color="#c00"
         offset="0" />
      <stop
         id="imagebot_26"
         stop-color="#a40000"
         offset="1" />
    </linearGradient>
    <filter
       id="imagebot_7"
       color-interpolation-filters="sRGB">
      <feGaussianBlur
         id="imagebot_25"
         stdDeviation="1.38582" />
    </filter>
    <filter
       id="imagebot_9"
       color-interpolation-filters="sRGB">
      <feGaussianBlur
         id="imagebot_24"
         stdDeviation="2.81707" />
    </filter>
    <filter
       id="imagebot_4"
       color-interpolation-filters="sRGB"
       width="19.883"
       y="-.0136"
       x="-9.4415"
       height="1.0272">
      <feGaussianBlur
         id="imagebot_23"
         stdDeviation="3.93396" />
    </filter>
    <radialGradient
       id="imagebot_45"
       fx=".51299"
       fy=".09211">
      <stop
         id="imagebot_61"
         stop-opacity=".53725"
         offset="0" />
      <stop
         id="imagebot_60"
         stop-opacity=".26667"
         stop-color="#fff"
         offset=".5" />
      <stop
         id="imagebot_59"
         stop-opacity=".13333"
         offset=".75" />
      <stop
         id="imagebot_58"
         stop-opacity="0"
         offset="1" />
    </radialGradient>
    <radialGradient
       id="imagebot_41"
       fx=".52632"
       fy=".71711"
       cy=".46053"
       cx=".48684"
       r=".76976">
      <stop
         id="imagebot_48"
         stop-opacity="0"
         offset="0" />
      <stop
         id="imagebot_47"
         stop-opacity="0"
         offset=".5" />
      <stop
         id="imagebot_46"
         offset="1" />
    </radialGradient>
    <linearGradient
       id="imagebot_81"
       x2=".51948"
       y1=".07361"
       x1=".51948"
       y2=".81549">
      <stop
         id="imagebot_89"
         stop-color="#1f2259"
         offset="0" />
      <stop
         id="imagebot_88"
         stop-color="#2fb5ea"
         offset="1" />
    </linearGradient>
    <linearGradient
       id="imagebot_78"
       x2=".32197"
       y1=".15208"
       x1=".29982"
       y2=".4548">
      <stop
         id="imagebot_87"
         stop-color="#fff"
         offset="0" />
      <stop
         id="imagebot_86"
         stop-opacity="0"
         stop-color="#fff"
         offset="1" />
    </linearGradient>
    <radialGradient
       id="imagebot_77"
       gradientUnits="userSpaceOnUse"
       cy="38.594"
       cx="180.72"
       gradientTransform="matrix(.16244 2.1067 -1.6909 .26266 228.26 -371.43)"
       r="28.884">
      <stop
         id="imagebot_85"
         stop-opacity=".87451"
         stop-color="#fff"
         offset="0" />
      <stop
         id="imagebot_84"
         stop-opacity="0"
         stop-color="#fff"
         offset="1" />
    </radialGradient>
    <radialGradient
       id="imagebot_75"
       gradientUnits="userSpaceOnUse"
       cy="26.293"
       cx="194.08"
       gradientTransform="matrix(-1.0179 0 6.233e-7 -1.1824 391.62 74.389)"
       r="28.884">
      <stop
         id="imagebot_83"
         stop-color="#fff"
         offset="0" />
      <stop
         id="imagebot_82"
         stop-opacity="0"
         stop-color="#fff"
         offset="1" />
    </radialGradient>
    <radialGradient
       id="imagebot_95"
       fx=".53289"
       fy=".01316"
       cy=".04928"
       cx=".5416"
       r=".76976">
      <stop
         id="imagebot_53"
         stop-color="#fff"
         offset="0" />
      <stop
         id="imagebot_51"
         stop-color="#bdbdbd"
         offset=".15098" />
      <stop
         id="imagebot_49"
         stop-color="#fff"
         offset=".63535" />
    </radialGradient>
  </defs>
  <g
     id="imagebot_2">
    <title
       id="title50">imagebot_2</title>
    <metadata
       id="metadata52">image/svg+xmlOpenclipartPlus Button2006-12-26T00:00:00clip art, clipart,http://openclipart.org/detail/24737/-by--24737Anonymousclip artclipart</metadata>
    <metadata
       id="metadata54">image/svg+xmlOpenclipartEarth and magnify glass2012-04-23T00:00:00blue, clip art, clipart, earth, glass, green, magnify, openstreetmap, zoom,http://openclipart.org/detail/169660/earth-and-magnify-glass.-by-kubakubablueclip artclipartearthglassgreenmagnifyopenstreetmapzoom</metadata>
    <g
       id="imagebot_247">
      <g
         id="imagebot_99"
         transform="translate(6 2) matrix(1.3606 0 0 1.3606 28.777 -13.337)">
        <path
           id="imagebot_44"
           d="m127.4 483.73a27.352 27.352 0 1 0 -54.702 0 27.352 27.352 0 1 0 54.702 0z"
           fill="url(#imagebot_45)"
           transform="matrix(.53647 .82139 -.44772 .29242 138.37 -176.56)"
           fill-rule="evenodd" />
        <g
           id="imagebot_73"
           transform="matrix(.19426 .29744 -.29744 .19426 4.8901 1.0407)">
          <path
             id="imagebot_80"
             transform="matrix(2.0836 0 0 2.0835 -336.93 -52.699)"
             d="m222.45 56.486a28.884 28.884 0 1 1 -57.77 0 28.884 28.884 0 1 1 57.77 0z"
             fill="url(#imagebot_81)" />
          <path
             id="imagebot_79"
             opacity=".78365"
             d="m61.04 123.52c-3.686-0.42-8.028-1.27-8.245-1.62-0.132-0.21 0.468-0.53 1.333-0.69 2.069-0.41 2.104-0.41 5.268-0.02 1.799 0.22 2.837 0.15 3.055-0.2 0.232-0.37 0.898-0.31 2.255 0.24 1.726 0.69 3.075 0.72 5.314 0.12 0.425-0.11 0.669 0.09 0.587 0.48-0.1 0.47 0.117 0.55 0.728 0.3 0.478-0.21 1.524-0.34 2.325-0.29l1.456 0.08-1.17-0.83-1.169-0.82 1.111-0.41c0.708-0.26 1.356-0.21 1.787 0.15 0.869 0.72 6.841 0.2 9.239-0.8 0.95-0.39 2.411-0.73 3.246-0.74s2.064-0.33 2.731-0.71c1.349-0.77 2.427-0.92 2.427-0.35 0 0.44-4.758 2.56-8.979 4-5.732 1.96-16.219 2.91-23.299 2.11zm12.965-7.79c-1.744-0.72-2.718-2.45-1.929-3.43 0.345-0.43 0.293-0.61-0.177-0.61-0.468-0.01-0.5-0.12-0.107-0.37 0.308-0.19 0.707-1.44 0.888-2.78s0.615-3.41 0.963-4.61c0.349-1.2 0.631-2.62 0.627-3.16-0.008-1.024 0.417-4.263 0.913-6.952 0.398-2.154-0.56-3.826-2.866-5.002-1.023-0.522-1.978-1.321-2.123-1.776-0.722-2.261-2.4-5.646-3.738-7.537-1.305-1.847-0.414-5.792 1.744-7.719 1.302-1.162 1.525-1.671 1.394-3.185-0.085-0.991-0.331-1.912-0.546-2.045-0.216-0.134-0.413-0.461-0.438-0.728-0.026-0.267-0.32-0.486-0.654-0.486-0.333 0-0.554 0.268-0.489 0.594 0.152 0.77-2.758 0.232-3.669-0.678-0.354-0.354-0.846-0.644-1.094-0.644s-0.451-0.289-0.451-0.643c0-1.04-2.049-2.622-3.883-2.997-0.934-0.191-2.178-0.787-2.763-1.324-0.713-0.655-1.875-1.02-3.525-1.109-2.529-0.137-5.13-1.375-4.62-2.2 0.158-0.255-0.367-0.464-1.169-0.464-1.819 0-2.38-0.813-1.198-1.738 0.493-0.387 0.66-0.645 0.369-0.574-0.441 0.107-2.306-1.788-3.697-3.755-0.189-0.267-1.007-1.25-1.818-2.184l-1.475-1.699 0.761 1.577c0.419 0.868 0.957 1.578 1.196 1.578s0.317 0.305 0.174 0.679c-0.143 0.373-0.027 0.823 0.258 0.999s0.519 0.669 0.519 1.095c0 0.675-0.126 0.661-0.971-0.104-0.534-0.483-0.971-1.179-0.971-1.546 0-0.368-0.334-0.797-0.743-0.953-0.453-0.174-0.634-0.625-0.465-1.158 0.152-0.48 0.049-1.012-0.228-1.184-0.278-0.172-0.506-0.704-0.506-1.184 0-0.479-0.526-1.439-1.169-2.133-1.784-1.925-2.275-5.033-1.209-7.66 0.978-2.412 1.167-4.325 0.428-4.325-0.28 0-0.368-0.506-0.204-1.161 0.16-0.638 0.055-1.306-0.233-1.484-0.291-0.18-0.525 0.013-0.525 0.432 0 0.416-0.227 0.757-0.504 0.757s-0.461-0.492-0.41-1.092c0.178-2.073-0.06-2.791-0.925-2.791-1.102 0-4.526 1.73-5.027 2.541-0.209 0.337-0.551 0.616-0.761 0.62-0.21 0.003-1.392 0.704-2.626 1.558s-2.372 1.424-2.529 1.267c-0.156-0.156 0.415-0.756 1.27-1.332 0.855-0.577 1.629-1.477 1.721-2.002 0.091-0.524 0.966-1.663 1.945-2.53 0.978-0.867 1.366-1.433 0.863-1.257-1.394 0.485-0.735-0.92 0.778-1.658 0.685-0.334 1.377-1.099 1.537-1.699 0.384-1.442 3.736-3.755 5.474-3.777 0.758-0.009 2.689-0.296 4.291-0.636 1.601-0.34 3.717-0.564 4.7-0.498 1.469 0.1 1.776-0.036 1.721-0.762-0.054-0.717-0.227-0.784-0.916-0.353-0.468 0.292-1 0.38-1.184 0.197-0.464-0.464 0.738-1.814 1.615-1.814 0.422 0 0.611-0.285 0.456-0.688-0.174-0.454 0.347-0.958 1.526-1.477 0.984-0.433 1.353-0.688 0.819-0.566-1.282 0.291-4.154 1.298-5.212 1.825-0.463 0.231-1.282 0.421-1.82 0.421-0.537 0-0.977 0.192-0.977 0.427 0 0.422-3.46 1.811-5.825 2.338-1.051 0.234-0.986 0.114 0.485-0.897 5.256-3.613 9.929-5.6021 17.13-7.2931 3.692-0.8719 5.991-1.0572 13.207-1.0697 8.707-0.0152 15.24 0.7667 13.806 1.6526-0.36 0.2224-0.837 0.2913-1.06 0.1531-0.224-0.1381-2.675-0.3169-5.447-0.3973-4.231-0.1226-4.998-0.0336-4.773 0.5538 0.148 0.385 0.543 0.5949 0.877 0.4665 0.834-0.3198 4.754 1.7261 7.29 3.8031 1.15 0.943 2.274 1.714 2.499 1.714 0.224 0 0.692 0.454 1.038 1.009 0.552 0.883 0.512 1.039-0.32 1.257-1.25 0.327-1.591 2.3-0.79 4.57 0.352 0.997 0.534 1.919 0.405 2.048-0.444 0.444-3.312-1.302-5.183-3.153-1.03-1.02-2.106-1.71-2.391-1.533-0.287 0.177-0.379 0.094-0.207-0.185 0.172-0.278-0.022-0.784-0.432-1.124s-0.633-0.91-0.495-1.268c0.14-0.365-0.07-0.65-0.479-0.65-0.4 0-0.854-0.328-1.007-0.729-0.154-0.4-0.512-0.728-0.796-0.728s-0.871-0.32-1.305-0.712c-0.58-0.526-1.165-0.601-2.222-0.285-0.789 0.236-1.145 0.447-0.79 0.47 1.046 0.068 4.521 3.871 4.371 4.785-0.076 0.461 0.006 1.068 0.182 1.348 0.176 0.279 0.122 0.825-0.119 1.213-0.374 0.599-0.752 0.541-2.517-0.389-1.142-0.601-2.446-1.092-2.897-1.092-1.1 0.002-1.61-0.905-0.704-1.253 0.397-0.152 0.846-0.601 0.998-0.999 0.208-0.542 0.036-0.645-0.69-0.415-0.713 0.226-0.968 0.085-0.968-0.535 0-0.462-0.144-0.697-0.319-0.522-0.176 0.176-0.558 0.122-0.85-0.12-0.366-0.304-0.528 0.085-0.524 1.255 0.004 1.108 0.302 1.86 0.86 2.173 0.469 0.262 0.751 0.643 0.626 0.845s0.362 0.282 1.082 0.178c0.883-0.129 2.021 0.29 3.494 1.285 1.684 1.137 2.22 1.312 2.341 0.763 0.239-1.085 0.693-0.882 2.761 1.236 1.046 1.071 2.114 1.876 2.374 1.789 0.547-0.182 1.814 1 2.983 2.784 0.818 1.248 2.004 1.78 1.424 0.639-0.169-0.334 0.146-0.091 0.7 0.539s1.004 1.504 1 1.942c-0.006 0.691-0.069 0.7-0.478 0.067-0.418-0.647-0.475-0.647-0.516 0-0.031 0.5-0.123 0.538-0.291 0.121-0.391-0.97-2.495-0.758-2.415 0.243 0.042 0.538-0.333 0.906-1.025 1.004-0.601 0.086-1.092 0.388-1.092 0.671 0 0.322-0.732 0.418-1.942 0.255-1.585-0.212-1.943-0.113-1.952 0.543-0.006 0.442-0.438 1.35-0.96 2.017s-0.954 1.513-0.96 1.88c-0.009 0.564-0.139 0.564-0.852 0-0.78-0.619-0.779-0.569 0.02 0.682 0.949 1.485 0.785 1.976-1.22 3.664-1.37 1.152-1.816 3.14-0.841 3.743 0.713 0.441 1.496 2.631 1.144 3.201-0.421 0.681-1.698-0.524-2.442-2.305-0.46-1.101-1.051-1.597-2.17-1.821-2.385-0.477-3.357-0.368-3.357 0.376 0 0.439-0.34 0.593-0.952 0.433-1.099-0.287-4.052 1.395-5.116 2.915-0.935 1.335-0.923 2.935 0.038 4.959 0.893 1.884 1.617 2.255 3.614 1.856 0.999-0.2 1.548-0.653 1.746-1.443 0.159-0.633 0.539-1.168 0.843-1.189 0.305-0.02 0.936-0.11 1.402-0.199 1.266-0.243 1.469 0.514 0.593 2.209-0.431 0.833-0.66 1.639-0.51 1.79 0.151 0.15 0.024 0.576-0.282 0.945-0.462 0.556-0.242 0.637 1.275 0.469 3.006-0.331 3.6 0.015 3.571 2.079-0.048 3.483 1.084 4.934 3.035 3.89 0.643-0.345 1.229-0.344 1.874 0.001 1.249 0.669 1.307 0.657 2.368-0.482 0.505-0.542 1.332-1.069 1.839-1.172 0.507-0.102 1.34-0.352 1.851-0.554 0.652-0.257 0.824-0.197 0.578 0.201-0.193 0.313-0.119 0.568 0.163 0.568 0.283 0 0.514-0.205 0.514-0.456s0.585-0.153 1.3 0.217c0.715 0.371 1.513 0.543 1.774 0.382s0.334-0.066 0.162 0.212 0.177 0.637 0.774 0.797c1.528 0.409 1.915 0.373 1.593-0.147-0.154-0.249-0.023-0.61 0.289-0.804 0.355-0.219 0.438-0.14 0.222 0.21-0.322 0.521 0.354 0.752 2.017 0.69 0.333-0.012 0.61 0.336 0.615 0.773 0.012 1.114 3.321 3.727 5.184 4.095 1.878 0.371 3.545 1.71 3.545 2.847 0 0.459 0.232 0.979 0.516 1.154 0.339 0.209 0.217 0.681-0.351 1.364-0.477 0.574-0.559 0.773-0.183 0.443 0.556-0.488 1.267-0.282 3.766 1.092 1.694 0.931 3.478 1.693 3.958 1.693 0.49 0 1.26 0.422 1.73 0.938s1.16 0.82 1.53 0.676c0.49-0.189 0.68 0.144 0.68 1.207 0 1.035-0.63 2.215-2.16 3.998-1.19 1.392-2.3 3.212-2.49 4.044-0.49 2.296-2.671 5.069-4.448 5.668-0.868 0.293-1.578 0.838-1.578 1.212s-0.6 1.065-1.334 1.537c-0.735 0.472-1.729 1.346-2.211 1.941-2.383 2.946-4.98 5.016-6.061 4.826-0.838-0.15-1.077 0.01-0.971 0.64 0.152 0.89-0.894 2.44-1.649 2.44-0.252 0-1.645 1.02-3.096 2.27-1.752 1.52-2.442 2.4-2.056 2.64 0.408 0.25 0.227 0.66-0.607 1.36-1.113 0.94-1.135 1.05-0.338 1.67 0.467 0.36 0.849 0.77 0.849 0.91 0 0.62-1.834 0.64-3.295 0.03zm-1.953-83.49c-0.35-0.14-0.769-0.122-0.93 0.039-0.162 0.161 0.125 0.276 0.637 0.255 0.565-0.024 0.68-0.138 0.293-0.294zm3.29-2.201c0.009-0.192-0.311-0.223-0.711-0.069-0.426 0.163-0.731 0.005-0.736-0.38-0.006-0.536-0.087-0.532-0.44 0.025-0.262 0.415-0.224 1.141 0.097 1.847l0.531 1.163 0.621-1.119c0.34-0.614 0.628-1.274 0.636-1.466zm-15.516 1.365c0-0.097-0.499-0.504-1.109-0.903-0.995-0.653-1.213-0.644-2.112 0.084-0.974 0.789-0.944 0.814 1.11 0.903 1.161 0.051 2.111 0.013 2.111-0.084zm-1.167-2.499c-0.881-0.644-0.883-0.69-0.046-1.011 0.482-0.185 1.696-0.118 2.698 0.15 1.545 0.412 1.779 0.375 1.542-0.242-0.181-0.472-0.08-0.606 0.285-0.38 0.31 0.192 0.948 0.125 1.417-0.148 0.775-0.452 0.759-0.498-0.178-0.512-0.791-0.011-1.031-0.317-1.031-1.312 0-0.713-0.41-1.596-0.911-1.962-0.5-0.366-0.855-0.765-0.788-0.887 0.336-0.614 0.041-1.193-0.607-1.193-0.4 0-0.728-0.237-0.728-0.526s-0.273-0.428-0.607-0.308-0.994 0.018-1.468-0.226c-0.668-0.344-1.139-0.112-2.107 1.038-0.685 0.814-1.422 1.372-1.636 1.24-0.215-0.133-0.515 0.082-0.667 0.478-0.151 0.396-0.12 0.671 0.071 0.612 0.19-0.06 0.957 0.509 1.703 1.263 0.849 0.857 1.646 1.259 2.131 1.073 1.001-0.384 2.678 0.144 2.316 0.73-0.154 0.248-0.606 0.451-1.007 0.451-0.427 0-0.585-0.232-0.382-0.561 0.217-0.35 0.133-0.428-0.222-0.209-0.312 0.193-0.442 0.555-0.289 0.803 0.154 0.249 0.048 0.452-0.234 0.452s-0.514-0.218-0.514-0.485c0-0.854-1.82-0.519-2.055 0.378-0.266 1.02 0.864 2.311 1.344 1.535 0.215-0.349 0.499-0.348 0.92 0 0.334 0.278 0.752 0.362 0.927 0.186 0.176-0.176 0.32-0.028 0.32 0.328s0.163 0.483 0.363 0.284c0.2-0.2-0.052-0.668-0.56-1.039zm3.595-2.614c0-0.252 0.215-0.591 0.479-0.754 0.275-0.17 0.357 0.025 0.191 0.457-0.323 0.841-0.67 0.995-0.67 0.297zm-6.098-1.225c-0.518-0.392-0.686-0.72-0.375-0.728 0.923-0.026 2.103 0.54 2.103 1.007 0 0.636-0.658 0.53-1.728-0.279zm16.29 4.734c0-0.058-0.414-0.326-0.92-0.597-0.656-0.351-1.062-0.321-1.415 0.105-0.373 0.448-0.144 0.596 0.92 0.596 0.778 0 1.415-0.047 1.415-0.104zm-7.282-1.109c0-0.267-0.34-0.486-0.756-0.486s-0.622 0.219-0.457 0.486c0.165 0.267 0.505 0.485 0.757 0.485s0.456-0.218 0.456-0.485zm1.699 0c-0.165-0.267-0.396-0.486-0.514-0.486-0.117 0-0.214 0.219-0.214 0.486s0.232 0.485 0.514 0.485 0.379-0.218 0.214-0.485zm-15.775-2.443c-0.615-0.412-0.522-0.669 0.607-1.668 0.734-0.65 1.335-1.452 1.335-1.783s-0.31-0.178-0.688 0.34c-0.379 0.517-0.852 0.778-1.052 0.578s-0.109-0.363 0.203-0.363c0.311 0 0.566-0.328 0.566-0.728 0-0.943-0.918-0.945-1.279-0.003-0.154 0.399-0.478 0.602-0.721 0.451-0.244-0.15-0.317-0.476-0.163-0.725 0.153-0.248 0.06-0.452-0.207-0.452s-0.622 0.222-0.79 0.494c-0.167 0.271-0.531 0.353-0.808 0.182-0.325-0.201-0.27-0.46 0.155-0.729 0.536-0.34 0.523-0.415-0.07-0.407-0.922 0.012-3.378 1.391-2.52 1.414 0.35 0.009 0.513 0.215 0.364 0.457-0.15 0.242 0.22 0.338 0.82 0.212l1.093-0.227-1.118 0.668-1.119 0.669 1.348 0.614c0.973 0.443 1.399 0.463 1.53 0.07s0.378-0.382 0.886 0.039c0.567 0.471 0.581 0.662 0.074 0.984-0.41 0.26-0.122 0.399 0.826 0.399 1.134 0 1.295-0.107 0.728-0.486zm-1.839-1.734c-0.693-0.75-0.225-0.894 0.799-0.245 0.362 0.23 0.472 0.531 0.243 0.67s-0.698-0.052-1.042-0.425zm19.054-0.119c-0.273-0.288-1.197 0.442-1.197 0.946 0 0.262 0.306 0.194 0.679-0.15 0.374-0.344 0.607-0.702 0.518-0.796zm-13.817 0.707c0-0.105-0.339-0.321-0.753-0.48-0.432-0.165-0.627-0.084-0.457 0.191 0.285 0.461 1.21 0.682 1.21 0.289zm-7.385-4.925c0.42-0.365 0.179-0.495-0.87-0.47-0.797 0.019-1.832 0.458-2.3 0.974-0.834 0.92-0.83 0.921 0.192 0.074 1.086-0.899 1.972-0.4 1.376 0.776-0.169 0.334-0.008 0.279 0.358-0.121 0.365-0.401 0.925-0.955 1.244-1.233zm3.987 0.719c0-0.283-0.218-0.379-0.485-0.214s-0.485 0.396-0.485 0.514 0.218 0.214 0.485 0.214 0.485-0.232 0.485-0.514zm-2.557-3.706c-0.472-0.123-1.127-0.115-1.456 0.018s0.058 0.234 0.859 0.224 1.07-0.119 0.597-0.242zm3.784-0.541c-0.149-0.149-0.541 0-0.87 0.332-0.476 0.479-0.42 0.535 0.271 0.271 0.479-0.182 0.749-0.453 0.599-0.603zm5.569-0.608c0-0.251-0.182-0.456-0.404-0.456-0.223 0-0.405 0.318-0.405 0.706 0 0.389 0.182 0.595 0.405 0.457 0.222-0.137 0.404-0.455 0.404-0.707zm-1.947-0.952c-0.288-0.539-0.363-1.249-0.166-1.577 0.225-0.376 0.049-0.346-0.475 0.079-0.782 0.634-0.783 0.733-0.018 1.578 1.062 1.174 1.314 1.144 0.659-0.08zm-2.462 0.321c-0.111-0.096-0.857-0.321-1.658-0.5-1.063-0.238-1.26-0.193-0.728 0.167 0.655 0.444 2.873 0.753 2.386 0.333zm-4.328-1.326c0.647-0.458 0.647-0.491 0-0.301-0.4 0.118-1.165-0.01-1.699-0.285-0.868-0.446-0.9-0.414-0.304 0.308 0.775 0.941 1.019 0.974 2.003 0.278zm2.427-0.668c0-0.451-0.282-0.605-0.769-0.418-0.619 0.237-0.642 0.375-0.121 0.705 0.862 0.547 0.89 0.538 0.89-0.287zm12.814-0.258c1.907 0-0.045-1.064-2.149-1.172-1.268-0.065-2.281-0.417-2.651-0.923-0.864-1.1825-1.219-1.01-1.219 0.593 0 1.157 0.17 1.366 0.941 1.165 0.517-0.135 1.436 0.101 2.043 0.526 0.728 0.51 1.266 0.609 1.583 0.292 0.265-0.265 0.918-0.481 1.452-0.481zm-10.873 0c0-0.267-0.231-0.486-0.514-0.486s-0.379 0.219-0.214 0.486c0.165 0.267 0.396 0.485 0.514 0.485s0.214-0.218 0.214-0.485zm13.197-4.7c-0.351-0.1402-0.769-0.123-0.931 0.0383-0.161 0.1613 0.126 0.276 0.637 0.2549 0.566-0.0233 0.681-0.1383 0.294-0.2932zm12.866 106.32c-0.517-0.52 0.145-1.15 1.208-1.15 0.835 0 0.901 0.12 0.397 0.73-0.653 0.79-1.116 0.91-1.605 0.42zm-52.031-11.81c-1.335-1.55-2.515-2.74-2.623-2.64-0.107 0.1-0.713-0.518-1.346-1.377-1.178-1.595-2.814-2.747-3.947-2.777-0.349-0.01-0.506 0.192-0.347 0.448 0.172 0.279-0.299 0.262-1.17-0.042-1.138-0.396-1.794-1.218-2.986-3.742-2.459-5.201-2.488-5.329-1.361-5.932 0.566-0.303 0.879-0.829 0.727-1.223-0.145-0.38-0.053-0.691 0.206-0.691 0.258 0 0.47-0.341 0.47-0.758 0-0.508 0.36-0.708 1.092-0.607 0.757 0.105 1.094-0.098 1.098-0.663 0.004-0.448 0.167-0.976 0.364-1.173s0.358-0.121 0.358 0.17c0 0.29 0.655 0.671 1.456 0.847s1.456 0.595 1.456 0.932c0 0.336 0.601 0.912 1.335 1.28s1.455 0.735 1.603 0.815c0.147 0.08 0.178-0.623 0.068-1.562-0.244-2.092 0.671-2.297 1.12-0.251 0.176 0.801 0.504 1.456 0.729 1.456s0.677 0.819 1.004 1.82c0.327 1.001 1.054 2.291 1.615 2.867 1.463 1.499 2.234 2.501 2.234 2.899 0 0.191 0.344 0.727 0.765 1.192 1.022 1.129 1.264 4.767 0.399 6.002-0.373 0.53-0.678 1.35-0.678 1.82 0 0.51-0.498 0.98-1.238 1.17-1.223 0.3-1.226 0.31-0.243 1 0.972 0.68 1.357 1.65 0.631 1.58-0.2-0.01-1.456-1.3-2.791-2.86zm3.808-7.561c-0.158-0.412-0.391-0.645-0.519-0.517s-0.087 0.464 0.089 0.749c0.479 0.774 0.758 0.624 0.43-0.232zm4.471 9.531c-0.289-0.47 3.434-2.47 4.616-2.48 0.583 0 0.578-0.08-0.032-0.48-0.574-0.37-0.586-0.47-0.061-0.48 0.482 0 0.587-0.41 0.377-1.46-0.165-0.82-0.085-1.455 0.182-1.455 0.26 0 0.473 0.219 0.473 0.486s0.457 0.939 1.015 1.499l1.015 1.02-1.136 0.8c-0.625 0.44-1.246 0.8-1.379 0.8-0.134 0.01-0.932 0.5-1.774 1.1-1.61 1.15-2.839 1.39-3.296 0.65zm4.681-11.791c-0.32-0.32-0.582-0.757-0.582-0.97 0-0.716 0.731-0.399 1.343 0.582 0.664 1.063 0.167 1.316-0.761 0.388zm76.353-0.509c0.19-0.601 0.55-3.495 0.79-6.432 0.27-3.161 0.75-5.894 1.21-6.699 0.63-1.145 0.66-1.738 0.18-3.748-0.32-1.327-0.43-3.256-0.24-4.343 0.3-1.765 0.23-1.956-0.68-1.956-0.58 0-1.02-0.313-1.02-0.728 0-0.917-0.93-0.91-2.16 0.018-0.52 0.393-1.33 0.593-1.8 0.443-0.47-0.149-1.28-0.046-1.79 0.23-1.22 0.651-3.31-0.917-4.26-3.197-0.37-0.889-0.95-1.562-1.28-1.496-0.43 0.085-0.6-0.802-0.6-3.111 0-1.776 0.17-3.123 0.38-2.994 0.21 0.13 0.34-0.492 0.28-1.381-0.05-0.89 0.32-2.382 0.83-3.316 0.51-0.935 0.93-2.027 0.93-2.427 0-0.401 0.23-0.698 0.49-0.66 0.67 0.093 3.28-1.809 2.94-2.145-0.15-0.149 0.09-0.672 0.53-1.16 0.45-0.489 0.64-0.889 0.43-0.889s-0.08-0.382 0.29-0.849c0.6-0.77 0.59-0.788-0.18-0.184-0.47 0.367-0.88 0.53-0.91 0.364-0.04-0.166-0.1-0.575-0.14-0.909-0.04-0.333-0.48-0.535-0.98-0.448-0.8 0.141-0.86-0.052-0.55-1.699 0.2-1.021 0.34-2.37 0.31-2.998-0.06-1.777 0.38-2.071 1.93-1.272 1.33 0.688 1.43 0.678 1.43-0.15 0-0.489-0.55-1.629-1.22-2.534-1.44-1.957-1.45-1.985-0.36-1.644 0.77 0.242 0.78 0.206 0.07-0.379-0.84-0.701-0.89-0.834-0.97-2.467-0.05-0.821-0.12-0.881-0.28-0.242-0.12 0.467-0.51 0.849-0.86 0.849-0.89 0-1.32-1.938-0.5-2.254 0.36-0.139 0.54-0.565 0.39-0.947-0.19-0.503-0.03-0.602 0.6-0.36 0.68 0.26 0.8 0.151 0.55-0.506-0.2-0.527-0.13-0.72 0.19-0.52 0.28 0.174 0.39 0.637 0.24 1.029-0.15 0.391 0.27 1.677 0.93 2.857 0.65 1.18 1.08 2.53 0.95 3.001-0.14 0.486-0.01 0.398 0.31-0.204 0.47-0.876 0.38-1.365-0.52-2.817-0.6-0.966-0.99-1.851-0.88-1.966 0.29-0.286 3.12 3.776 3.52 5.056 0.18 0.566 0.49 1.029 0.68 1.029 0.75 0 5.9 11.46 5.9 13.114 0 0.425-0.36 0.282-1-0.402-0.88-0.954-1.92-1.41-1.92-0.847 0 0.334 2.02 3.668 2.22 3.668 0.1 0 0.04-0.358-0.13-0.796-0.25-0.653-0.14-0.706 0.59-0.297 0.49 0.275 0.94 0.906 0.99 1.403s0.23 1.558 0.4 2.359 0.63 3.691 1.02 6.423c0.77 5.368 0.39 12.291-1.01 18.432-0.37 1.656-0.68 3.732-0.68 4.611-0.01 2.677-0.95 5.326-2 5.6-0.53 0.138-1.5 1.314-2.16 2.615-1.24 2.457-2.04 3.167-1.42 1.272zm3.24-46.582c-0.35-0.349-0.58-0.377-0.58-0.073 0 0.648 0.58 1.222 0.9 0.898 0.14-0.138-0.01-0.509-0.32-0.825zm-1.28-0.016c-0.41-1.851-2.07-4.724-2.73-4.728-0.89-0.006-2.12 2.022-1.81 2.97 0.12 0.354 0.64 0.666 1.15 0.693 2.53 0.132 3.12 0.244 3.06 0.579-0.08 0.562 0.04 1.092 0.26 1.092 0.11 0 0.14-0.273 0.07-0.606zm-68.218 44.494c0-0.423 0.26-0.683 0.577-0.577 0.9 0.3 1.049 1.345 0.192 1.345-0.423 0-0.769-0.346-0.769-0.768zm1.704-0.68c-0.167-0.272 0.036-0.494 0.452-0.494 0.853 0 0.978 0.292 0.305 0.708-0.249 0.153-0.589 0.057-0.757-0.214zm-10.158-1.291c-0.406-1.059 0.134-1.551 0.707-0.645 0.574 0.908 0.586 1.442 0.033 1.442-0.239 0-0.571-0.358-0.74-0.797zm-4.166-5.012c0-0.259-0.328-0.345-0.728-0.191-0.885 0.34-0.965-0.48-0.116-1.184 0.454-0.377 0.757-0.204 1.168 0.668 0.306 0.648 0.358 1.177 0.116 1.177s-0.44-0.211-0.44-0.47zm-9.476-0.625c-0.528-0.291-1.245-0.928-1.594-1.416-0.675-0.944-2.036-1.212-2.036-0.401 0 0.267-0.436 0.485-0.97 0.485s-0.971-0.218-0.971-0.485-0.437-0.486-0.971-0.486-0.971-0.218-0.971-0.485 0.221-0.485 0.49-0.485c0.958 0-0.669-1.847-2.321-2.636-1.105-0.526-1.568-1.029-1.385-1.505 0.162-0.424-0.01-0.713-0.424-0.713-0.421 0-0.587 0.289-0.418 0.728 0.203 0.53-0.058 0.728-0.958 0.728-0.68 0-1.371-0.219-1.536-0.485-0.165-0.267 0.149-0.486 0.699-0.486s1.027-0.218 1.06-0.485c0.034-0.267 0.088-0.686 0.121-0.931 0.099-0.721 0.789-1.227 0.789-0.578 0 0.328 0.194 0.476 0.431 0.329 0.236-0.146 0.7 0.059 1.03 0.457s0.42 0.723 0.2 0.723-0.146 0.253 0.163 0.562c0.426 0.425 0.734 0.419 1.272-0.028 0.57-0.473 1.18-0.352 3.085 0.614 1.306 0.661 2.661 1.548 3.01 1.969 0.35 0.421 1.238 0.766 1.973 0.766 1.351 0 2.688-1.033 2.099-1.622-0.175-0.176-0.077-0.32 0.219-0.32 1.035 0 1.121 0.968 0.176 1.982-0.639 0.686-1.274 0.921-1.925 0.714-1.698-0.538-1.801 0.765-0.175 2.217 1.588 1.419 1.491 2.184-0.162 1.273zm5.78-1.421c-0.225-0.365-0.085-0.461 0.402-0.274 0.412 0.158 0.969 0.067 1.238-0.202 0.33-0.33 0.597-0.317 0.816 0.038 0.18 0.29 0.259 0.543 0.176 0.563-1.54 0.371-2.349 0.332-2.632-0.125zm-21.852-1.442c-0.231-0.372-1.013-1.053-1.738-1.514-1.8559-1.18-2.5504-2.588-1.4792-2.999 0.4542-0.175 0.6681-0.16 0.4754 0.033-0.4914 0.492 1.1288 2.173 1.7328 1.799 0.28-0.173 0.349-0.068 0.158 0.24-0.204 0.33 0.15 0.668 0.896 0.856 1.33 0.333 1.448 0.57 0.797 1.597-0.355 0.561-0.486 0.559-0.842-0.012zm1.574-0.13c0.146-0.38 0.6-0.819 1.01-0.976 0.533-0.205 0.66-0.067 0.448 0.487-0.164 0.426-0.297 0.865-0.297 0.976 0 0.112-0.321 0.203-0.713 0.203-0.417 0-0.603-0.286-0.448-0.69zm18.635-0.28c-0.655-1.224-0.108-1.224 1.456 0 1.201 0.939 1.202 0.949 0.139 0.96-0.592 0.005-1.309-0.426-1.595-0.96zm-15.532-0.214c0-0.118 0.218-0.349 0.485-0.514s0.486-0.069 0.486 0.214-0.219 0.514-0.486 0.514c-0.267 0-0.485-0.097-0.485-0.214zm1.739-0.692c-0.209-0.338-0.249-0.746-0.089-0.906 0.435-0.435 0.908 0.204 0.674 0.908-0.165 0.493-0.279 0.493-0.585-0.002zm-6.747-1.838c-0.182-0.182-0.357-1.332-0.389-2.555-0.048-1.874-0.106-1.999-0.364-0.796-0.168 0.786-0.47 1.386-0.67 1.334s-0.559-0.093-0.7958-0.093c-0.986 0-1.0404-3.316-0.0928-5.652 0.9316-2.296 1.0606-2.259 1.2546 0.361 0.138 1.864 0.7 2.496 1.996 2.249 0.76-0.146 1.157 0.005 1.157 0.439 0 0.364-0.492 0.675-1.093 0.692l-1.092 0.031 1.092 0.439c0.601 0.241 1.089 0.719 1.085 1.061-0.005 0.479-0.103 0.471-0.425-0.036-0.229-0.362-0.539-0.461-0.688-0.22-0.149 0.242-0.071 0.757 0.174 1.144 0.246 0.388 0.432 1.033 0.416 1.433-0.025 0.57-0.088 0.585-0.294 0.067-0.186-0.466-0.364-0.5-0.602-0.114-0.186 0.301-0.488 0.398-0.669 0.216zm48.289-1.625c0.244-0.733 1.024-0.808 1.254-0.121 0.111 0.333-0.162 0.607-0.607 0.607s-0.736-0.219-0.647-0.486zm-40.816-0.686c-0.022-0.512 0.093-0.798 0.254-0.637s0.179 0.58 0.039 0.93c-0.155 0.388-0.27 0.273-0.293-0.293zm-11.963-2.832c-0.556-4.549-0.564-4.756-0.1919-4.986 0.1893-0.117 0.4944 1.148 0.6782 2.811 0.1837 1.663 0.4535 3.516 0.5996 4.117 0.1461 0.6 0.0449 1.092-0.2247 1.092s-0.6573-1.366-0.8612-3.034zm7.5204 2.912c-0.365-1.228-0.357-2.548 0.018-3.193 0.362-0.619 0.477-0.324 0.489 1.252 0.008 1.134-0.095 2.063-0.228 2.063-0.134 0-0.259-0.055-0.279-0.122zm21.879-4.014c0-0.407-0.546-0.988-1.214-1.292-1.056-0.481-1.681-1.368-0.964-1.368 0.448 0 2.412 1.202 2.777 1.699 0.517 0.704 0.451 1.699-0.114 1.699-0.267 0-0.485-0.332-0.485-0.738zm-24.269-3.145c-0.352-0.658-0.358-0.971-0.017-0.971 0.276 0 0.502-0.34 0.502-0.757 0-0.416 0.219-0.621 0.486-0.456 0.622 0.384 0.637 3.155 0.017 3.155-0.258 0-0.702-0.437-0.988-0.971zm-2.42-1.549c0.005-0.349 0.22-0.963 0.478-1.364 0.383-0.591 0.472-0.529 0.478 0.336 0.004 0.585-0.211 1.198-0.478 1.363s-0.482 0.015-0.478-0.335zm-2.9822-1.484c-0.1923-4.843 1.5244-15.947 2.5203-16.301 0.2499-0.089 0.4549-0.652 0.4549-1.251 0-1.315 2.258-7.066 3.128-7.968 0.516-0.534 0.674-0.509 0.926 0.146 0.193 0.504 0.11 0.672-0.229 0.462-0.352-0.217-0.425 0.008-0.216 0.665 0.211 0.666-0.001 1.289-0.645 1.888-1.021 0.951-1.994 3.099-1.994 4.403 0 0.659 0.118 0.634 0.713-0.153 0.392-0.519 0.72-1.543 0.728-2.277 0.009-0.734 0.234-1.335 0.501-1.335 0.878 0 0.507 3.327-0.607 5.446-0.935 1.779-1.114 1.921-1.247 0.985-0.085-0.6-0.333-1.092-0.55-1.092-0.9473 0-1.4122 5.994-0.508 6.553 0.807 0.499 0.593 2.329-0.236 2.012-1.0688-0.411-1.5664 0.994-1.608 4.541-0.0562 4.793-0.0635 4.854-0.5832 4.854-0.2669 0-0.5135-0.71-0.548-1.578zm4.5412-0.077c0.149-0.78 0.029-1.094-0.362-0.944-0.77 0.295-1.438-3.672-0.737-4.373 0.348-0.348 0.504-0.069 0.504 0.902 0 0.859 0.5 1.927 1.287 2.749 1.075 1.122 1.186 1.467 0.669 2.089-0.925 1.115-1.614 0.901-1.361-0.423zm57.069-8.15c0.453-0.453 0.712-0.453 1.165 0s0.324 0.582-0.582 0.582-1.036-0.129-0.583-0.582zm3.01 0.069c0-0.309 0.309-0.443 0.688-0.298 0.378 0.146 0.813-0.063 0.967-0.464 0.169-0.441 0.52-0.578 0.89-0.348 0.335 0.209 1.08 0.319 1.656 0.245 0.575-0.075 1.188 0.096 1.363 0.379 0.177 0.286-0.071 0.527-0.56 0.544-0.483 0.016-1.807 0.137-2.941 0.267-1.375 0.158-2.063 0.049-2.063-0.325zm6.698-0.069c0.453-0.453 0.712-0.453 1.165 0s0.324 0.582-0.582 0.582-1.036-0.129-0.583-0.582zm-11.199-2.614c-0.74-0.402-1.593-0.578-1.895-0.391-0.336 0.207-0.415 0.122-0.203-0.221 0.22-0.357-0.028-0.561-0.681-0.561-0.566 0-0.922 0.172-0.793 0.382s-0.185 0.381-0.699 0.381c-1.291 0-1.172-0.676 0.233-1.316 0.942-0.429 1.739-0.311 4.126 0.615 2.907 1.127 3.781 1.899 2.108 1.86-0.467-0.01-1.455-0.348-2.196-0.749zm43.33-6.483c0-0.283 0.22-0.514 0.49-0.514 0.26 0 0.48 0.096 0.48 0.214s-0.22 0.349-0.48 0.514c-0.27 0.165-0.49 0.068-0.49-0.214zm0.97-8.98c0-0.118 0.22-0.349 0.49-0.514s0.48-0.069 0.48 0.214c0 0.283-0.22 0.514-0.48 0.514s-0.49-0.096-0.49-0.214zm-96.103-2.398c0-0.4 0.218-0.863 0.485-1.028s0.486 0.028 0.486 0.428-0.219 0.863-0.486 1.028-0.485-0.028-0.485-0.428zm1.941-0.029c0-0.117 0.219-0.349 0.486-0.514s0.485-0.068 0.485 0.214-0.218 0.514-0.485 0.514c-0.267 0-0.486-0.096-0.486-0.214zm2.913-2.669c0-0.283 0.218-0.514 0.485-0.514s0.486 0.096 0.486 0.214c0 0.117-0.219 0.349-0.486 0.514s-0.485 0.068-0.485-0.214zm0.717-4.415c-0.164-0.266-0.557-0.329-0.872-0.14-0.327 0.196-0.287-0.009 0.093-0.477 0.693-0.854 2.255-1.108 2.671-0.433 0.132 0.213-0.172 0.645-0.677 0.96-0.592 0.37-1.022 0.402-1.215 0.09zm64.174-6.833c-0.484-0.282-1.205-0.387-1.603-0.234-0.409 0.157-0.595 0.069-0.427-0.202 0.163-0.264 0.029-0.48-0.298-0.48-1.077 0 0.022-0.642 1.338-0.783 1.511-0.161 4.214 1.102 3.798 1.775-0.374 0.605-1.699 0.569-2.808-0.076z"
             fill="#429d2d" />
          <path
             id="imagebot_76"
             opacity=".76923"
             d="m222.45 56.486a28.884 28.884 0 1 1 -57.77 0 28.884 28.884 0 1 1 57.77 0z"
             transform="matrix(1.172 -.20957 .14765 .82572 -175.35 26.94)"
             stroke="url(#imagebot_78)"
             stroke-width=".86461"
             fill="url(#imagebot_77)" />
          <path
             id="imagebot_74"
             transform="matrix(-1.4231 .62382 -.45596 -1.0402 379.04 26.727)"
             d="m222.45 56.486a28.884 28.884 0 1 1 -57.77 0 28.884 28.884 0 1 1 57.77 0z"
             fill="url(#imagebot_75)" />
        </g>
        <path
           id="imagebot_42"
           opacity=".26"
           d="m133.87 490a33.617 33.571 8.5377e-7 1 0 -67.236 0 33.617 33.571 8.5377e-7 1 0 67.236 0z"
           fill-rule="evenodd"
           transform="matrix(.34112 .52229 -.52229 .34112 220.49 -185.94)"
           fill="url(#imagebot_95)" />
        <path
           id="imagebot_40"
           d="m137.63 488.89a32.469 32.469 0 1 0 -64.932 0 32.469 32.469 0 1 0 64.932 0z"
           fill="url(#imagebot_41)"
           transform="matrix(.34112 .52229 -.52229 .34112 216.6 -187.79)"
           fill-rule="evenodd" />
      </g>
      <g
         id="imagebot_240"
         transform="translate(6) matrix(1.7338 0 0 1.8664 .42103 35.316)">
        <g
           id="imagebot_155"
           display="none"
           transform="matrix(.078947 0 0 .078947 -.0000024474 -53.081)">
          <g
             id="imagebot_235"
             transform="matrix(.21025 0 0 .21025 779.06 -364.57)">
            <path
               id="imagebot_239"
               opacity=".7"
               d="m208.75 356.52a32.877 30.004 0 1 1 -65.75 0 32.877 30.004 0 1 1 65.75 0z"
               transform="matrix(1.327 0 0 1.4541 401.38 173.87)"
               stroke="#fff"
               stroke-width="6.9"
               fill="none" />
            <path
               id="imagebot_238"
               opacity=".7"
               d="m189.6 352.05a17.875 18.513 0 1 1 -35.75 0 17.875 18.513 0 1 1 35.75 0z"
               transform="matrix(1.4232 0 0 1.3741 390.38 207.59)"
               stroke="#fff"
               stroke-width="6.9"
               fill="none" />
            <path
               id="imagebot_237"
               opacity=".7"
               d="m218.16 350.4a47.776 47.488 0 1 1 -95.55 0 47.776 47.488 0 1 1 95.55 0z"
               transform="matrix(1.3126 0 0 1.3205 411.13 229.39)"
               stroke="#fff"
               stroke-width="6.9"
               fill="none" />
            <path
               id="imagebot_236"
               d="m620.21 967.35c0-25-10-35-20-55-5-5-11.79-28.92-67.88-58.11 18.8-30.03 41.54-2.38 78.8-2.41 2.88-40.89 9.21-97.51 9.21-144.76 0-58.73 30-58.73 31.37 0 1.08 46.72-1.37 65.37-1.37 83.7 0-22.41 48.86-8.5 67.03 7.34 15.91 13.88 37.95 28.61 36.7 50.66-2.11 37.07-31.17 57.96-33.7 80.14-0.83 11.81-0.16 20.56-0.16 38.44"
               fill="#fff" />
          </g>
          <g
             id="imagebot_229"
             transform="matrix(1.6396 0 0 1.6396 -712.2 -1303.5)">
            <path
               id="imagebot_234"
               opacity=".7"
               d="m208.75 356.52a32.877 30.004 0 1 1 -65.75 0 32.877 30.004 0 1 1 65.75 0z"
               transform="matrix(.17749 0 0 .19449 920.05 588.89)"
               stroke="#fff"
               stroke-width="6.9"
               fill="none" />
            <path
               id="imagebot_233"
               opacity=".7"
               d="m189.6 352.05a17.875 18.513 0 1 1 -35.75 0 17.875 18.513 0 1 1 35.75 0z"
               transform="matrix(.19035 0 0 .18379 918.58 593.4)"
               stroke="#fff"
               stroke-width="6.9"
               fill="none" />
            <path
               id="imagebot_232"
               opacity=".7"
               d="m218.16 350.4a47.776 47.488 0 1 1 -95.55 0 47.776 47.488 0 1 1 95.55 0z"
               transform="matrix(.17556 0 0 .17662 921.36 596.32)"
               stroke="#fff"
               stroke-width="6.9"
               fill="none" />
            <a
               id="imagebot_230"
               transform="translate(-53.168 163.17)">
              <path
                 id="imagebot_231"
                 d="m1002.5 531.85c0-3.34-1.3-4.98-3.07-7.26-1.07-2.06-1.58-3.27-2.5-7.47 1.42-3.22 3.87-5.81 4.77-7.11 0.4-5.47 0.8-6.65 0.8-12.97 0-7.86 4-7.86 4.2 0 0.2 6.25-0.1 8.24-0.1 10.69 0-2.99 6.5-0.63 8.9 1.49 2.1 1.85 5.1 3.82 4.9 6.77-0.3 4.96-4.2 7.75-4.5 10.72-0.1 1.58 0 2.75 0 5.14"
                 fill="#fff" />
            </a>
          </g>
          <g
             id="imagebot_223"
             transform="matrix(.29041 0 0 .29041 913.33 -314.42)"
             fill="#fff">
            <path
               id="imagebot_228"
               d="m227.79 591.5c0-21.45-8.58-30.04-17.16-47.2-4.29-4.29-10.12-24.82-58.26-49.86 16.13-25.78 35.65-2.05 67.63-2.07 2.47-35.09 7.9-83.69 7.9-124.22 0-50.4 25.75-50.4 26.92 0 0.93 40.09-1.17 56.1-1.17 71.82 0-19.23 41.93-7.29 57.52 6.3 13.66 11.92 32.57 24.56 31.49 43.48-1.8 31.81-26.74 49.74-28.92 68.77-0.71 10.14-0.13 17.64-0.13 32.98" />
            <path
               id="imagebot_227"
               d="m274.31 378.19h20v-20l30 30 15-15v50h-50l15-15-30-30" />
            <path
               id="imagebot_226"
               d="m204.31 323.19h-20v20l-30-30-15 15v-50h50l-15 15 30 30" />
            <path
               id="imagebot_225"
               d="m184.31 358.19v20h20l-30 30 15 15h-50v-50l15 15 30-30" />
            <path
               id="imagebot_224"
               d="m294.31 343.19v-20h-20l30-30-15-15h50v50l-15-15-30 30" />
          </g>
          <g
             id="imagebot_215"
             transform="matrix(.21765 0 0 .21765 663.09 -513.56)"
             fill="#fff">
            <g
               id="imagebot_217"
               transform="translate(-689.72 48.441)">
              <path
                 id="imagebot_222"
                 d="m829.72 983.92c0-21.45-8.58-31.96-19.73-46.56-6.85-13.26-10.12-20.98-15.98-47.94 9.09-20.65 24.76-37.27 30.48-45.62 2.47-35.09 5.34-42.7 5.34-83.24 0-50.4 25.75-50.4 26.92 0 0.93 40.09-0.53 52.9-0.53 68.63 0-19.24 41.29-4.1 56.88 9.5 13.66 11.91 32.57 24.55 31.49 43.47-1.8 31.81-26.74 49.74-28.92 68.78-0.71 10.13-0.13 17.64-0.13 32.98" />
              <path
                 id="imagebot_221"
                 d="m710 762.36v75h75v-15h-45l60-50-75 35v-45h-15z" />
              <path
                 id="imagebot_220"
                 d="m785 662.36h-75v75h15v-45l75 35-60-50h45v-15z" />
              <path
                 id="imagebot_219"
                 d="m975 737.36v-75h-75v15h45l-60 50 75-35v45h15z" />
              <path
                 id="imagebot_218"
                 d="m900 842.36h75v-75h-15v45l-75-35 60 50h-45v15z" />
            </g>
            <rect
               id="imagebot_216"
               opacity=".39918"
               height="65"
               width="120"
               y="764.36"
               x="94" />
          </g>
          <g
             id="imagebot_209"
             transform="matrix(.30062 0 0 .30062 181.81 -345.39)">
            <path
               id="imagebot_214"
               opacity=".7"
               d="m208.75 356.52a32.877 30.004 0 0 1 -4.61 15.32l-28.26-15.32h32.87z"
               transform="matrix(1.0545 .14592 -.17104 1.2361 5.2799 325.89)"
               stroke="#fff"
               stroke-width="6.9"
               fill="none" />
            <path
               id="imagebot_213"
               d="m87.794 1031.5c0-21.5-8.582-30-17.163-47.2-4.291-4.29-10.121-24.82-58.255-49.87 16.133-25.77 35.651-2.04 67.624-2.07 2.47-35.09 7.904-83.68 7.904-124.22 0-50.4 25.746-50.4 26.916 0 0.94 40.09-1.17 56.1-1.17 71.83 0-19.24 41.93-7.3 57.52 6.3 13.66 11.91 32.57 24.55 31.5 43.47-1.81 31.81-26.75 49.74-28.92 68.78-0.72 10.08-0.14 17.68-0.14 32.98"
               fill="#fff" />
            <path
               id="imagebot_212"
               opacity=".7"
               d="m208.75 356.52a32.877 30.004 0 0 1 -4.61 15.32l-28.26-15.32h32.87z"
               transform="matrix(-.78206 .50669 -.60064 -1.0868 421.45 1090.6)"
               stroke="#fff"
               stroke-width="6.9"
               fill="none" />
            <path
               id="imagebot_211"
               opacity=".7"
               d="m208.75 356.52a32.877 30.004 0 0 1 -4.61 15.32l-28.26-15.32h32.87z"
               transform="matrix(.48431 -.61838 .67758 .53068 -201.98 681.8)"
               stroke="#fff"
               stroke-width="6.9"
               fill="none" />
            <path
               id="imagebot_210"
               opacity=".39918"
               d="m160.84 854.01l-41.07-21.76-17.47 43.08-13.653-44.43-42.81 18.1 21.76-41.08-43.077-17.46 44.43-13.66-18.11-42.8 41.074 21.76 17.466-43.07 13.65 44.43 42.81-18.1-21.76 41.07 43.08 17.46-44.43 13.66 18.11 42.8z"
               fill="#fff" />
          </g>
          <g
             id="imagebot_206"
             transform="matrix(.30062 0 0 .30062 207.96 -339.17)"
             fill="#fff">
            <path
               id="imagebot_208"
               d="m353.5 1034.9c0-21.5-8.58-30-17.16-47.2-4.29-4.29-10.12-24.82-58.26-49.86 16.14-25.78 35.65-2.05 67.63-2.07 2.47-35.09 7.9-83.69 7.9-124.22 0-50.4 25.75-50.4 26.92 0 0.93 40.09-1.17 56.1-1.17 71.82 0-19.23 41.93-7.29 57.52 6.3 13.66 11.92 32.57 24.56 31.49 43.48-1.8 31.81-26.74 49.74-28.92 68.75-0.71 10.2-0.13 17.7-0.13 33" />
            <path
               id="imagebot_207"
               opacity=".39918"
               d="m315 1233.2l-41.07-21.8-17.47 43.1-13.65-44.4-42.81 18.1 21.76-41.1-43.08-17.5 44.43-13.6-18.11-42.8 41.07 21.8 17.47-43.1 13.65 44.4 42.81-18.1-21.76 41.1 43.08 17.4-44.43 13.7 18.11 42.8z"
               transform="matrix(-1.0244 .29381 -.35993 -.77431 1056.1 1624)" />
          </g>
          <g
             id="imagebot_200"
             transform="matrix(.30062 0 0 .30062 292.49 -336.57)"
             fill="#fff">
            <path
               id="imagebot_205"
               d="m763.09 1003.6c0-21.45-8.58-31.96-19.72-46.56-6.86-13.26-10.13-20.98-15.99-47.94 9.09-20.65 24.76-37.27 30.48-45.62 2.47-35.09 5.34-42.7 5.34-83.24 0-50.4 25.75-50.4 26.92 0 0.93 40.09-0.53 52.9-0.53 68.63 0-19.24 41.29-4.1 56.88 9.5 13.66 11.91 32.57 24.55 31.49 43.47-1.8 31.81-26.74 49.74-28.92 68.78-0.71 10.13-0.13 17.64-0.13 32.98" />
            <path
               id="imagebot_204"
               opacity=".75"
               d="m722.96 736.81l-30 35 30 35v-25l30-10-30-10v-25z" />
            <path
               id="imagebot_203"
               opacity=".75"
               d="m832.96 806.81l30-35-30-35v25l-30 10 30 10v25z" />
            <path
               id="imagebot_202"
               d="m712.96 736.81l-30 35 30 35v-25l30-10-30-10v-25z" />
            <path
               id="imagebot_201"
               d="m847.96 806.81l30-35-30-35v25l-30 10 30 10v25z" />
          </g>
          <g
             id="imagebot_192"
             transform="matrix(.30062 0 0 .30062 253.61 -330.08)"
             fill="#fff">
            <path
               id="imagebot_199"
               d="m517.38 994.83c0-21.45-8.58-31.96-19.72-46.56-6.86-13.26-10.13-20.97-15.99-47.94 9.09-20.65 24.76-37.27 30.48-45.62 2.47-35.09 5.34-42.7 5.34-83.24 0-50.4 25.75-50.4 26.92 0 0.93 40.09-0.53 52.9-0.53 68.63 0-19.24 41.29-4.1 56.88 9.5 13.66 11.91 32.57 24.55 31.49 43.47-1.8 31.81-26.74 49.74-28.92 68.78-0.71 10.13-0.13 17.64-0.13 32.98" />
            <path
               id="imagebot_198"
               opacity=".7"
               d="m153.62 381.42a39.897 30.004 0 0 1 -1.13 -49.21"
               transform="matrix(1.1388 0 0 1.2479 329.59 313.89)" />
            <path
               id="imagebot_197"
               opacity=".7"
               d="m157.31 365.41a20.826 18.513 0 0 1 -0.3 -26.45"
               transform="matrix(1.2213 0 0 1.1792 320.15 342.83)" />
            <path
               id="imagebot_196"
               opacity=".7"
               d="m153.62 381.42a39.897 30.004 0 0 1 -1.13 -49.21"
               transform="matrix(-1.1388 0 0 -1.2479 729.3 1201.7)" />
            <path
               id="imagebot_195"
               opacity=".7"
               d="m157.31 365.41a20.826 18.513 0 0 1 -0.3 -26.45"
               transform="matrix(-1.2213 0 0 -1.1792 738.74 1172.8)" />
            <path
               id="imagebot_194"
               d="m574.44 709.31v105l35-52.5-35-52.5z" />
            <path
               id="imagebot_193"
               d="m484.44 814.31v-105l-35 52.5 35 52.5z" />
          </g>
          <g
             id="imagebot_186"
             transform="matrix(.27205 0 0 .27205 640.65 -99.69)"
             fill="#fff">
            <path
               id="imagebot_191"
               d="m133.77 256.23c0-21.45-8.58-30.04-17.16-47.2-4.29-4.29-10.12-24.82-58.258-49.86 16.133-25.78 35.651-2.05 67.628-2.07 2.47-35.09 7.9-83.687 7.9-124.22 0-50.404 25.75-50.404 26.92-0.003 0.93 40.09-1.17 56.099-1.17 71.823 0-19.23 41.93-7.292 57.52 6.3 13.66 11.92 32.57 24.56 31.49 43.48-1.8 31.81-26.74 49.74-28.92 68.77-0.71 10.14-0.13 17.64-0.13 32.98" />
            <path
               id="imagebot_190"
               d="m180.29 42.925h20v-20l30 30 15-15v50h-50l15-15-30-30" />
            <path
               id="imagebot_189"
               d="m110.29-12.075h-20v20l-30-30-15 15v-50h50l-15 15 30 30" />
            <path
               id="imagebot_188"
               d="m90.292 22.925v20h19.998l-29.998 30 15 15h-50v-50l15 15 30-30" />
            <path
               id="imagebot_187"
               d="m200.29 7.9246v-20h-20l30-30-15-15h50v50l-15-15-30 30" />
          </g>
          <g
             id="imagebot_180"
             transform="matrix(.27205 0 0 .27205 661.39 -107.47)"
             fill="#fff">
            <path
               id="imagebot_185"
               d="m423.2 266.56c0-21.45-8.58-30.04-17.16-47.2-4.29-4.29-10.12-24.82-58.26-49.86 16.14-25.78 35.65-2.05 67.63-2.07 2.47-35.09 7.9-83.687 7.9-124.22 0-50.404 25.75-50.404 26.92-0.003 0.93 40.09-1.17 56.099-1.17 71.823 0-19.231 41.93-7.29 57.52 6.3 13.66 11.92 32.57 24.56 31.49 43.48-1.8 31.81-26.74 49.74-28.92 68.77-0.71 10.13-0.13 17.64-0.13 32.98" />
            <path
               id="imagebot_184"
               d="m534.72 78.251v20h-20l-30-30-15 15v-50h50l-15 15 30 30" />
            <path
               id="imagebot_183"
               d="m334.72-26.749v-20h20l30 30 15-15v50h-50l15-15-30-30" />
            <path
               id="imagebot_182"
               d="m354.72 98.251h-20v-20l30-30-15-15h50v50l-15-15-30 30" />
            <path
               id="imagebot_181"
               d="m514.72-46.749h20v20l-30 30 15 15h-50v-50l15 15 30-30" />
          </g>
          <g
             id="imagebot_173"
             transform="matrix(.27586 0 0 .27586 833.86 -212.07)"
             fill="#fff">
            <path
               id="imagebot_179"
               d="m549.45 634.81c0-21.45-8.58-31.96-19.72-46.56-6.86-13.26-10.13-20.97-15.99-47.94 9.09-20.65 24.76-37.27 30.48-45.62 2.47-35.09 5.34-42.7 5.34-83.24 0-50.4 25.75-50.4 26.92 0 0.93 40.09-0.53 52.9-0.53 68.63 0-19.24 41.29-4.1 56.88 9.5 13.66 11.91 32.57 24.55 31.49 43.47-1.8 31.81-26.74 49.74-28.92 68.78-0.71 10.13-0.13 17.64-0.13 32.98" />
            <path
               id="imagebot_178"
               d="m519.72 488.25v-75h-75v15h45l-60 50 75-35v45h15z" />
            <path
               id="imagebot_177"
               d="m444.72 388.25h75v-75h-15v45l-75-35 60 50h-45v15z" />
            <path
               id="imagebot_176"
               d="m604.72 313.25v75h75v-15h-45l60-50-75 35v-45h-15z" />
            <path
               id="imagebot_175"
               d="m679.72 418.25h-75v75h15v-45l75 35-60-50h45v-15z" />
            <rect
               id="imagebot_174"
               opacity=".39918"
               height="65"
               width="120"
               y="368.25"
               x="499.72" />
          </g>
          <g
             id="imagebot_166"
             transform="matrix(.27586 0 0 .27586 834.39 -204.92)"
             fill="#fff">
            <path
               id="imagebot_172"
               d="m159.72 623.25c0-21.45-8.58-31.96-19.72-46.56-6.86-13.26-10.13-20.97-15.99-47.94 9.09-20.65 24.76-37.27 30.48-45.62 2.47-35.09 5.34-42.7 5.34-83.24 0-50.4 25.75-50.4 26.92 0 0.93 40.09-0.53 52.9-0.53 68.63 0-19.24 41.29-4.1 56.88 9.5 13.66 11.91 32.57 24.55 31.49 43.47-1.8 31.81-26.74 49.74-28.92 68.78-0.71 10.13-0.13 17.64-0.13 32.98" />
            <path
               id="imagebot_171"
               d="m40 401.69v75h75v-15h-45l60-50-75 35v-45h-15z" />
            <path
               id="imagebot_170"
               d="m115 301.69h-75v75h15v-45l75 35-60-50h45v-15z" />
            <path
               id="imagebot_169"
               d="m305 376.69v-75h-75v15h45l-60 50 75-35v45h15z" />
            <path
               id="imagebot_168"
               d="m230 481.69h75v-75h-15v45l-75-35 60 50h-45v15z" />
            <rect
               id="imagebot_167"
               opacity=".39918"
               height="65"
               width="120"
               y="355.25"
               x="113.72" />
          </g>
          <g
             id="imagebot_161"
             transform="matrix(.24736 0 0 .24736 7.0825 -209.2)">
            <path
               id="imagebot_165"
               opacity=".7"
               d="m208.75 356.52a32.877 30.004 0 1 1 -65.75 0 32.877 30.004 0 1 1 65.75 0z"
               transform="matrix(1.327 0 0 1.4541 -66.93 -118.53)"
               stroke="#fff"
               stroke-width="6.9"
               fill="none" />
            <path
               id="imagebot_164"
               opacity=".7"
               d="m189.6 352.05a17.875 18.513 0 1 1 -35.75 0 17.875 18.513 0 1 1 35.75 0z"
               transform="matrix(1.4232 0 0 1.3741 -77.931 -84.802)"
               stroke="#fff"
               stroke-width="6.9"
               fill="none" />
            <path
               id="imagebot_163"
               opacity=".7"
               d="m218.16 350.4a47.776 47.488 0 1 1 -95.55 0 47.776 47.488 0 1 1 95.55 0z"
               transform="matrix(1.3126 0 0 1.3205 -57.176 -63.007)"
               stroke="#fff"
               stroke-width="6.9"
               fill="none" />
            <path
               id="imagebot_162"
               d="m151.9 674.95c0-25-10-35-20-55-5-5-11.79-28.92-67.883-58.11 18.799-30.03 41.543-2.38 78.803-2.41 2.88-40.89 9.21-97.51 9.21-144.76 0-58.73 30-58.73 31.37 0 1.08 46.72-1.37 65.37-1.37 83.7 0-22.41 48.86-8.5 67.03 7.34 15.91 13.88 37.95 28.61 36.7 50.66-2.11 37.07-31.17 57.96-33.7 80.14-0.83 11.81-0.16 20.56-0.16 38.44"
               fill="#fff" />
          </g>
          <g
             id="imagebot_156"
             transform="matrix(.28824 0 0 .28824 23.457 -11.512)">
            <path
               id="imagebot_160"
               opacity=".7"
               d="m208.75 356.52a32.877 30.004 0 1 1 -65.75 0 32.877 30.004 0 1 1 65.75 0z"
               transform="matrix(1.1388 0 0 -1.2479 151.93 111.78)"
               stroke="#fff"
               stroke-width="6.9"
               fill="none" />
            <path
               id="imagebot_159"
               opacity=".7"
               d="m189.6 352.05a17.875 18.513 0 1 1 -35.75 0 17.875 18.513 0 1 1 35.75 0z"
               transform="matrix(1.2213 0 0 -1.1792 142.49 82.833)"
               stroke="#fff"
               stroke-width="6.9"
               fill="none" />
            <path
               id="imagebot_158"
               opacity=".7"
               d="m218.16 350.4a47.776 47.488 0 1 1 -95.55 0 47.776 47.488 0 1 1 95.55 0z"
               transform="matrix(1.1264 0 0 -1.1332 160.3 64.129)"
               stroke="#fff"
               stroke-width="6.9"
               fill="none" />
            <path
               id="imagebot_157"
               d="m339.72-96.749c0-21.451-8.58-31.961-19.72-46.561-6.86-13.25-10.13-20.97-15.99-47.94 9.09-20.65 24.76-37.27 30.48-45.62 2.47-35.09 5.34-42.7 5.34-83.24 0-50.4 25.75-50.4 26.92 0 0.93 40.09-0.53 52.9-0.53 68.63 0-19.24 41.29-4.1 56.88 9.5 13.66 11.91 32.57 24.55 31.49 43.47-1.8 31.81-26.74 49.74-28.92 68.78-0.71 10.13-0.13 17.64-0.13 32.98"
               fill="#fff" />
          </g>
        </g>
        <g
           id="imagebot_153"
           display="none"
           transform="matrix(.078947 0 0 .078947 -.0000023684 -87.49)">
          <path
             id="imagebot_154"
             d="m141.42 1475.4c0-23.6-9.42-35.1-21.65-51.1-7.53-14.6-11.11-23-17.56-52.6 9.98-22.7 27.19-41 33.47-50.1 2.71-38.5 5.86-46.9 5.86-91.4 0-55.3 28.27-55.3 29.55 0 1.03 44-0.58 58.1-0.58 75.3 0-21.1 45.33-4.5 62.44 10.5 15 13 35.75 26.9 34.58 47.7-1.99 34.9-29.37 54.6-31.75 75.5-0.78 11.1-0.15 19.4-0.15 36.2" />
        </g>
        <g
           id="imagebot_151"
           transform="matrix(.078947 0 0 .078947 -.0000024474 -53.081)">
          <path
             id="imagebot_152"
             d="m140.88 1042.4c0-23.6-9.42-33-18.84-51.81-4.71-4.72-11.11-27.25-63.955-54.75 17.711-28.29 39.137-2.24 74.235-2.27 2.71-38.52 8.68-91.87 8.68-136.37 0-55.33 28.27-55.33 29.55 0 1.03 44.01-1.28 61.59-1.28 78.85 0-21.11 46.03-8.01 63.14 6.92 15 13.08 35.75 26.95 34.58 47.73-1.99 34.92-29.37 54.6-31.75 75.5-0.78 11.1-0.15 19.4-0.15 36.2" />
        </g>
        <g
           id="imagebot_145"
           display="none"
           transform="matrix(.078947 0 0 .078947 -.0000023684 -87.49)">
          <g
             id="imagebot_146"
             transform="matrix(1.0978 0 0 1.0978 -795.39 547.27)"
             display="inline">
            <path
               id="imagebot_150"
               opacity=".75"
               d="m813.64 579.2l-30 35 30 35v-25l30-10-30-10v-25z" />
            <path
               id="imagebot_149"
               opacity=".75"
               d="m923.64 649.2l30-35-30-35v25l-30 10 30 10v25z" />
            <path
               id="imagebot_148"
               d="m803.64 579.2l-30 35 30 35v-25l30-10-30-10v-25z" />
            <path
               id="imagebot_147"
               d="m938.64 649.2l30-35-30-35v25l-30 10 30 10v25z" />
          </g>
        </g>
        <g
           id="imagebot_137"
           display="none"
           transform="matrix(.078947 0 0 .078947 -.0000023684 -87.49)">
          <g
             id="imagebot_138"
             transform="matrix(1.0978 0 0 1.0978 -589.06 529.84)"
             display="inline">
            <path
               id="imagebot_144"
               opacity=".7"
               d="m153.62 381.42a39.897 30.004 0 0 1 -1.13 -49.21"
               transform="matrix(1.1388 0 0 1.2479 476.83 179.25)" />
            <path
               id="imagebot_143"
               opacity=".7"
               d="m157.31 365.41a20.826 18.513 0 0 1 -0.3 -26.45"
               transform="matrix(1.2213 0 0 1.1792 467.39 208.19)" />
            <path
               id="imagebot_142"
               opacity=".7"
               d="m153.62 381.42a39.897 30.004 0 0 1 -1.13 -49.21"
               transform="matrix(-1.1388 0 0 -1.2479 876.54 1067.1)" />
            <path
               id="imagebot_141"
               opacity=".7"
               d="m157.31 365.41a20.826 18.513 0 0 1 -0.3 -26.45"
               transform="matrix(-1.2213 0 0 -1.1792 885.98 1038.1)" />
            <path
               id="imagebot_140"
               d="m721.69 574.67v105l35-52.5-35-52.5z" />
            <path
               id="imagebot_139"
               d="m631.69 679.67v-105l-35 52.5 35 52.5z" />
          </g>
        </g>
        <g
           id="imagebot_131"
           display="none"
           transform="matrix(.078947 0 0 .078947 -.0000023684 -87.49)">
          <g
             id="imagebot_132"
             transform="matrix(1.0978 0 0 1.0978 -792.5 1220.3)"
             display="inline">
            <path
               id="imagebot_136"
               d="m900 22.362h20v-20l30 30 15-15v50h-50l15-15-30-30" />
            <path
               id="imagebot_135"
               d="m830-32.638h-20v20l-30-30-15 15v-50h50l-15 15 30 30" />
            <path
               id="imagebot_134"
               d="m810 2.3622v20h20l-30 30 15 15h-50v-50l15 15 30-30" />
            <path
               id="imagebot_133"
               d="m920-12.638v-20h-20l30-30-15-15h50v50l-15-15-30 30" />
          </g>
        </g>
        <g
           id="imagebot_125"
           display="none"
           transform="matrix(.078947 0 0 .078947 -.0000023684 -87.49)">
          <g
             id="imagebot_126"
             transform="matrix(1.0978 0 0 1.0978 -797.98 1045.1)"
             display="inline">
            <path
               id="imagebot_130"
               d="m970 207.36v20h-20l-30-30-15 15v-50h50l-15 15 30 30" />
            <path
               id="imagebot_129"
               d="m770 102.36v-20h20l30 30 15-15v50h-50l15-15-30-30" />
            <path
               id="imagebot_128"
               d="m790 227.36h-20v-20l30-30-15-15h50v50l-15-15-30 30" />
            <path
               id="imagebot_127"
               d="m950 82.362h20v19.998l-30 30 15 15h-50v-49.998l15 14.998 30-29.998" />
          </g>
        </g>
        <g
           id="imagebot_119"
           transform="matrix(.078947 0 0 .078947 -.0000023684 -87.49)"
           display="none">
          <path
             id="imagebot_124"
             d="m10 1229.5v78.7h82.075v-15.7h-49.245l65.66-52.5-82.075 36.7v-47.2h-16.415z" />
          <path
             id="imagebot_123"
             d="m92.075 1118.2h-82.075v78.7h16.415v-47.2l82.075 36.7-65.66-52.5h49.245v-15.7z" />
          <path
             id="imagebot_122"
             d="m300 1196.9v-78.7h-82.08v15.7h49.25l-65.66 52.5 82.07-36.7v47.2h16.42z" />
          <path
             id="imagebot_121"
             d="m217.92 1307.1h82.08v-78.7h-16.42v47.2l-82.08-36.7 65.66 52.5h-49.24v15.7z" />
          <rect
             id="imagebot_120"
             opacity=".39918"
             height="68.232"
             width="131.32"
             y="1174.4"
             x="90.68" />
        </g>
        <g
           id="imagebot_113"
           transform="matrix(.078947 0 0 .078947 -.0000023684 -87.49)">
          <path
             id="imagebot_118"
             d="m108.49 1308.2v-78.7h-82.075v15.7h49.245l-65.66 52.5 82.075-36.7v47.2h16.415z" />
          <path
             id="imagebot_117"
             d="m26.415 1196.9h82.075v-78.7h-16.415v47.2l-82.075-36.7 65.66 52.5h-49.245v15.7z" />
          <path
             id="imagebot_116"
             d="m201.51 1118.2v78.7h82.07v-15.7h-49.24l65.66-52.5-82.08 36.7v-47.2h-16.41z" />
          <path
             id="imagebot_115"
             d="m283.58 1228.4h-82.08v78.7h16.42v-47.2l82.08 36.7-65.66-52.4h49.24v-15.8z" />
          <rect
             id="imagebot_114"
             opacity=".39918"
             height="68.232"
             width="131.32"
             y="1174.4"
             x="90.68" />
        </g>
        <g
           id="imagebot_108"
           transform="matrix(.078947 0 0 .078947 -.0000023684 -87.49)"
           display="none">
          <path
             id="imagebot_112"
             opacity=".7"
             d="m208.75 356.52a32.877 30.004 0 0 1 -4.61 15.32l-28.26-15.32h32.87z"
             transform="matrix(1.1577 .16019 -.18777 1.357 51.364 703.79)" />
          <path
             id="imagebot_111"
             opacity=".7"
             d="m208.75 356.52a32.877 30.004 0 0 1 -4.61 15.32l-28.26-15.32h32.87z"
             transform="matrix(-.85855 .55625 -.65939 -1.1931 508.24 1543.3)" />
          <path
             id="imagebot_110"
             opacity=".7"
             d="m208.75 356.52a32.877 30.004 0 0 1 -4.61 15.32l-28.26-15.32h32.87z"
             transform="matrix(.53168 -.67886 .74385 .58258 -176.17 1094.5)" />
          <path
             id="imagebot_109"
             opacity=".39918"
             d="m315 1233.2l-41.07-21.8-17.47 43.1-13.65-44.4-42.81 18.1 21.76-41.1-43.08-17.5 44.43-13.6-18.11-42.8 41.07 21.8 17.47-43.1 13.65 44.4 42.81-18.1-21.76 41.1 43.08 17.4-44.43 13.7 18.11 42.8z"
             transform="matrix(1.0978 0 0 1.0978 -123.67 -70.242)" />
        </g>
        <g
           id="imagebot_103"
           display="none"
           transform="matrix(.078947 0 0 .078947 -.0000023684 -87.49)">
          <g
             id="imagebot_104"
             transform="matrix(1.0978 0 0 1.0978 -414.54 1578.8)"
             display="inline"
             stroke="#000"
             stroke-width="6.9"
             fill="none">
            <path
               id="imagebot_107"
               opacity=".7"
               d="m208.75 356.52a32.877 30.004 0 1 1 -65.75 0 32.877 30.004 0 1 1 65.75 0z"
               transform="matrix(1.1388 0 0 1.2479 318.24 -774.26)" />
            <path
               id="imagebot_106"
               opacity=".7"
               d="m189.6 352.05a17.875 18.513 0 1 1 -35.75 0 17.875 18.513 0 1 1 35.75 0z"
               transform="matrix(1.2213 0 0 1.1792 308.8 -745.32)" />
            <path
               id="imagebot_105"
               opacity=".7"
               d="m218.16 350.4a47.776 47.488 0 1 1 -95.55 0 47.776 47.488 0 1 1 95.55 0z"
               transform="matrix(1.1264 0 0 1.1332 326.61 -726.61)" />
          </g>
        </g>
        <metadata
           id="metadata204">image/svg+xmlOpenclipartzoom-in-finger2012-10-11T15:38:05icon that guides user to touch something shown on a tablet/smartphonehttp://openclipart.org/detail/172690/zoom-in-finger-by-jammi-evil-172690Jammi Evilclip artclipartfingeriPadiconintablettouchzoom</metadata>
      </g>
      <g
         id="imagebot_246"
         transform="translate(28 1)">
        <g
           id="imagebot_245"
           transform="translate(0 -1.0215) matrix(.80199 0 0 1.6022 -7.4972 -54.775)">
          <path
             id="imagebot_18"
             d="m413.44 159.94c-18.99 0-34.28 15.29-34.28 34.28v720.88l87.12-100 87.16 100v-720.88c0-18.99-15.29-34.28-34.28-34.28h-105.72zm54.03 70.03c16.11 0 29.16 13.08 29.16 29.19s-13.05 29.16-29.16 29.16c-16.11 0-29.15-13.05-29.15-29.16s13.04-29.19 29.15-29.19z"
             transform="matrix(.19349 0 0 .070860 -24.91 24.821)"
             fill="url(#imagebot_19)" />
          <path
             id="imagebot_17"
             filter="url(#imagebot_16)"
             fill="#fff"
             transform="matrix(.19349 0 0 .070860 -24.91 24.821)"
             d="m409.93 167.02c-14.52 0-26.21 11.69-26.21 26.21v7.51c1.07 0.09 2.17 0.12 3.27 0.12 0.37 0 0.73-0.02 1.1-0.03v-5.68c0-13.58 10.92-24.5 24.49-24.5l104.43-1.77-1.73-3.63-105.35 1.77z" />
          <path
             id="imagebot_14"
             filter="url(#imagebot_16)"
             transform="matrix(-.16801 0 0 .061526 138.42 26.393)"
             d="m367.93 165.02c-14.52 0-26.21 11.69-26.21 26.21v7.51c1.07 0.09 2.17 0.12 3.27 0.12 0.37 0 0.73-0.02 1.1-0.03v-5.68c0-13.58 10.92-24.5 24.49-24.5h8.27c-0.01-1.23-0.09-2.43-0.26-3.63h-10.66z"
             fill="url(#imagebot_15)" />
          <path
             id="imagebot_13"
             fill-rule="evenodd"
             fill="#750000"
             transform="matrix(.19349 0 0 .070860 -24.91 24.821)"
             d="m467.85 227.35c-16.11 0-29.16 13.05-29.16 29.16 0 0.5 0 0.99 0.03 1.49 0.82-15.37 13.55-27.58 29.13-27.58s28.31 12.21 29.13 27.58c0.03-0.5 0.03-0.99 0.03-1.49 0-16.11-13.05-29.16-29.16-29.16z" />
          <path
             id="imagebot_12"
             d="m467.56 298c-19.26 0-34.87-15.6-34.87-34.87 0-0.6 0.01-1.19 0.04-1.78 0.98 18.38 16.2 32.98 34.83 32.98s33.85-14.6 34.83-32.98c0.03 0.59 0.03 1.18 0.03 1.78 0 19.27-15.6 34.87-34.86 34.87z"
             fill-rule="evenodd"
             transform="matrix(.19349 0 0 .070860 -24.91 24.821)"
             filter="url(#imagebot_11)"
             fill="#fff" />
          <path
             id="imagebot_10"
             d="m467.56 238c-19.26 0-34.87-15.6-34.87-34.87 0-0.6 0.01-1.19 0.04-1.78 0.98 18.38 16.2 32.98 34.83 32.98s33.85-14.6 34.83-32.98c0.03 0.59 0.03 1.18 0.03 1.78 0 19.27-15.6 34.87-34.86 34.87z"
             fill-rule="evenodd"
             transform="matrix(.19349 0 0 -.070860 -24.91 57.228)"
             filter="url(#imagebot_11)"
             fill="#a40000" />
          <path
             id="imagebot_8"
             filter="url(#imagebot_9)"
             fill="#fff"
             transform="matrix(.19349 0 0 .070860 -24.91 24.821)"
             d="m473.05 821.14l82.02 87.68-2.82 5.66-79.2-93.34z" />
          <path
             id="imagebot_6"
             filter="url(#imagebot_7)"
             transform="matrix(-.19349 0 0 .070860 154.87 25.522)"
             d="m468.1 811.24l82.02 87.68-2.82 5.66-79.2-93.34z"
             fill="#730000" />
          <path
             id="imagebot_5"
             d="m384 213.36l-1 694"
             transform="matrix(.19349 0 0 .070860 -24.91 24.821)"
             filter="url(#imagebot_4)"
             stroke="#a40000"
             stroke-width="4"
             fill="none" />
          <path
             id="imagebot_3"
             d="m548 207.36l-1 694"
             transform="matrix(.19349 0 0 .070860 -24.91 24.821)"
             filter="url(#imagebot_4)"
             stroke="#a40000"
             stroke-width="4"
             fill="none" />
        </g>
        <path
           id="imagebot_34"
           stroke-linejoin="round"
           d="m37.985 62.986h19.949v-20.054h13.34v20.054h20.051v13.34h-20.051v19.948h-13.34v-19.948h-19.949v-13.34z"
           stroke-opacity=".14876"
           transform="translate(0 -13.467) matrix(.40568 0 0 .40568 18.771 30.23)"
           stroke="#000"
           stroke-linecap="round"
           stroke-width="6.2073"
           fill="#ffffff" />
      </g>
    </g>
  </g>
  <metadata
     id="metadata219">
    <rdf:RDF>
      <cc:Work>
        <dc:format>image/svg+xml</dc:format>
        <dc:type
           rdf:resource="http://purl.org/dc/dcmitype/StillImage" />
        <cc:license
           rdf:resource="http://creativecommons.org/publicdomain/zero/1.0/" />
        <dc:publisher>
          <cc:Agent
             rdf:about="http://openclipart.org/">
            <dc:title>Openclipart</dc:title>
          </cc:Agent>
        </dc:publisher>
        <dc:title>LocationBookmarks</dc:title>
        <dc:source>https://openclipart.org/detail/191908/location-bookmark</dc:source>
      </cc:Work>
      <cc:License
         rdf:about="http://creativecommons.org/publicdomain/zero/1.0/">
        <cc:permits
           rdf:resource="http://creativecommons.org/ns#Reproduction" />
        <cc:permits
           rdf:resource="http://creativecommons.org/ns#Distribution" />
        <cc:permits
           rdf:resource="http://creativecommons.org/ns#DerivativeWorks" />
      </cc:License>
    </rdf:RDF>
  </metadata>
</svg>
